<svg width="107" height="111" viewBox="0 0 107 111" fill="none" xmlns="http://www.w3.org/2000/svg">
<path d="M30.4681 73.6487C30.6194 74.1957 30.8769 74.7074 31.226 75.1548C31.5751 75.6022 32.0089 75.9764 32.5026 76.2562C32.9963 76.5359 33.5402 76.7157 34.1034 76.7852C34.6666 76.8548 35.238 76.8127 35.7849 76.6614C36.3318 76.5101 36.8436 76.2526 37.2909 75.9035C37.7383 75.5544 38.1126 75.1206 38.3923 74.6269C38.6721 74.1332 38.8518 73.5893 38.9214 73.0261C38.9909 72.4629 38.9488 71.8915 38.7975 71.3446L30.4681 73.6487ZM5.6643 12.9352C5.11523 12.7749 4.53979 12.7251 3.97134 12.7889C3.4029 12.8527 2.85279 13.0287 2.35291 13.3068C1.85304 13.5848 1.41336 13.9594 1.05938 14.4087C0.705409 14.858 0.444189 15.3732 0.290878 15.9243C0.137567 16.4753 0.0952184 17.0514 0.166289 17.619C0.23736 18.1865 0.420435 18.7343 0.704893 19.2306C0.98935 19.7269 1.36953 20.1617 1.82336 20.5099C2.2772 20.8581 2.79566 21.1126 3.34866 21.2589L5.6643 12.9352ZM103.52 76.2985C104.083 76.1684 104.613 75.9269 105.081 75.5882C105.549 75.2495 105.944 74.8205 106.243 74.3266C106.542 73.8327 106.739 73.2839 106.822 72.7125C106.905 72.1412 106.873 71.5589 106.728 71.0002C106.582 70.4415 106.326 69.9176 105.975 69.4595C105.623 69.0014 105.183 68.6184 104.681 68.3332C104.179 68.0479 103.625 67.8662 103.052 67.7987C102.478 67.7312 101.897 67.7794 101.343 67.9403L103.52 76.2985ZM45.9691 86.8629C47.7548 93.3144 43.8378 100.129 36.9024 101.932L39.074 110.29C50.4621 107.335 57.4205 95.8777 54.2985 84.5587L45.9691 86.8629ZM36.9024 101.932C29.9209 103.746 22.9164 99.691 21.1192 93.1819L12.7898 95.486C15.9003 106.747 27.732 113.239 39.074 110.29L36.9024 101.932ZM21.1192 93.1819C19.3335 86.7304 23.2505 79.9159 30.1859 78.113L28.0142 69.7605C16.6261 72.7156 9.66194 84.167 12.7898 95.486L21.1192 93.1819ZM30.1859 78.113C37.1673 76.2985 44.1719 80.3537 45.9691 86.8629L54.2985 84.5587C51.1879 73.2974 39.3563 66.8055 28.0142 69.7548L30.1859 78.113ZM38.7975 71.3446L26.4014 26.4719L18.072 28.776L30.4681 73.6487L38.7975 71.3446ZM15.4798 15.6541L5.6643 12.9352L3.34866 21.2589L13.17 23.9835L15.4798 15.6541ZM26.4014 26.4719C25.669 23.8797 24.2783 21.5211 22.3645 19.6255C20.4507 17.7299 18.0789 16.3617 15.4798 15.6541L13.1815 23.9835C15.6296 24.6632 17.4499 26.5238 18.072 28.776L26.4014 26.4719ZM51.2282 89.8928L103.52 76.2985L101.349 67.9403L49.0508 81.5346L51.2282 89.8928Z" fill="white"/>
<path d="M42.3282 36.0054C39.5344 25.8961 38.1405 20.8385 40.5137 16.8582C42.8812 12.8721 48.0942 11.5184 58.5204 8.80529L69.5801 5.93666C80.0063 3.22932 85.2193 1.86989 89.3264 4.16825C93.4335 6.47237 94.8333 11.5241 97.6213 21.6392L100.588 32.3649C103.382 42.4742 104.781 47.5318 102.408 51.5179C100.035 55.4982 94.8218 56.8577 84.3956 59.565L73.3359 62.4394C62.9097 65.1467 57.6967 66.5004 53.5896 64.202C49.4825 61.8979 48.0885 56.8461 45.2947 46.7368L42.3282 36.0054Z" stroke="white" stroke-width="6"/>
</svg>
