<svg width="107" height="118" viewBox="0 0 107 118" fill="none" xmlns="http://www.w3.org/2000/svg">
<path d="M87.6053 39.1052C83.8364 39.1052 80.2219 37.608 77.5569 34.943C74.8919 32.278 73.3947 28.6635 73.3947 24.8947C73.3947 21.1258 74.8919 17.5113 77.5569 14.8463C80.2219 12.1813 83.8364 10.6841 87.6053 10.6841C91.3741 10.6841 94.9886 12.1813 97.6536 14.8463C100.319 17.5113 101.816 21.1258 101.816 24.8947C101.816 28.6635 100.319 32.278 97.6536 34.943C94.9886 37.608 91.3741 39.1052 87.6053 39.1052ZM16.5526 27.7368C13.5375 27.7368 10.6459 26.539 8.51394 24.407C6.38194 22.2751 5.1842 19.3835 5.1842 16.3684C5.1842 13.3533 6.38194 10.4617 8.51394 8.32967C10.6459 6.19768 13.5375 4.99994 16.5526 4.99994C19.5677 4.99994 22.4593 6.19768 24.5913 8.32967C26.7233 10.4617 27.921 13.3533 27.921 16.3684C27.921 19.3835 26.7233 22.2751 24.5913 24.407C22.4593 26.539 19.5677 27.7368 16.5526 27.7368Z" stroke="white" stroke-width="9" stroke-miterlimit="2"/>
<path d="M56.3421 104.474L73.3947 90.2632V73.2105C73.3947 63.3598 79.0789 56.1579 87.6053 56.1579C96.1316 56.1579 101.816 63.3598 101.816 73.2105V113M50.6579 87.4211L33.6053 73.2105V61.8421C33.6053 51.9914 27.921 44.7895 19.3947 44.7895C10.8684 44.7895 5.1842 51.9914 5.1842 61.8421V113" stroke="white" stroke-width="9" stroke-linecap="round" stroke-linejoin="round"/>
</svg>
