<svg width="117" height="109" viewBox="0 0 117 109" fill="none" xmlns="http://www.w3.org/2000/svg">
<path d="M9.90002 77.5C9.90002 80.8418 11.2275 84.0466 13.5905 86.4096C15.9534 88.7725 19.1583 90.1 22.5 90.1C25.8418 90.1 29.0466 88.7725 31.4096 86.4096C33.7725 84.0466 35.1 80.8418 35.1 77.5C35.1 74.1583 33.7725 70.9534 31.4096 68.5905C29.0466 66.2275 25.8418 64.9 22.5 64.9C19.1583 64.9 15.9534 66.2275 13.5905 68.5905C11.2275 70.9534 9.90002 74.1583 9.90002 77.5Z" stroke="white" stroke-width="7.2" stroke-linecap="round" stroke-linejoin="round"/>
<path d="M40.5 104.5C38.7601 101.238 36.1662 98.5095 32.9957 96.6072C29.8252 94.7049 26.1974 93.7 22.5 93.7C18.8026 93.7 15.1748 94.7049 12.0043 96.6072C8.83381 98.5095 6.23994 101.238 4.5 104.5M81.9 77.5C81.9 79.1547 82.2259 80.7931 82.8591 82.3218C83.4923 83.8505 84.4204 85.2396 85.5904 86.4096C86.7605 87.5796 88.1495 88.5077 89.6782 89.1409C91.2069 89.7741 92.8453 90.1 94.5 90.1C96.1547 90.1 97.7931 89.7741 99.3218 89.1409C100.851 88.5077 102.24 87.5796 103.41 86.4096C104.58 85.2396 105.508 83.8505 106.141 82.3218C106.774 80.7931 107.1 79.1547 107.1 77.5C107.1 74.1583 105.772 70.9534 103.41 68.5905C101.047 66.2275 97.8417 64.9 94.5 64.9C91.1583 64.9 87.9534 66.2275 85.5904 68.5905C83.2275 70.9534 81.9 74.1583 81.9 77.5Z" stroke="white" stroke-width="7.2" stroke-linecap="round" stroke-linejoin="round"/>
<path d="M112.5 104.5C110.76 101.238 108.166 98.5094 104.996 96.6071C101.825 94.7049 98.1974 93.7 94.5001 93.7C90.8027 93.7 87.1748 94.7049 84.0044 96.6071C80.8339 98.5094 78.24 101.238 76.5001 104.5M74.0953 40.5C72.1711 38.2421 69.7798 36.4288 67.0864 35.1853C64.393 33.9418 61.4618 33.2978 58.4953 33.2978C55.5287 33.2978 52.5975 33.9418 49.9041 35.1853C47.2107 36.4288 44.8194 38.2421 42.8953 40.5M45.9001 17.1C45.9001 18.7547 46.226 20.3931 46.8592 21.9218C47.4924 23.4505 48.4205 24.8395 49.5905 26.0095C50.7605 27.1796 52.1496 28.1077 53.6783 28.7409C55.207 29.3741 56.8454 29.7 58.5001 29.7C60.1547 29.7 61.7932 29.3741 63.3219 28.7409C64.8506 28.1077 66.2396 27.1796 67.4096 26.0095C68.5796 24.8395 69.5077 23.4505 70.1409 21.9218C70.7742 20.3931 71.1001 18.7547 71.1001 17.1C71.1001 13.7583 69.7726 10.5534 67.4096 8.19045C65.0466 5.8275 61.8418 4.5 58.5001 4.5C55.1583 4.5 51.9535 5.8275 49.5905 8.19045C47.2276 10.5534 45.9001 13.7583 45.9001 17.1Z" stroke="white" stroke-width="7.2" stroke-linecap="round" stroke-linejoin="round"/>
</svg>
