<svg width="109" height="108" viewBox="0 0 109 108" fill="none" xmlns="http://www.w3.org/2000/svg">
<path d="M54.23 86.3999C56.12 86.3999 57.7184 85.7465 59.0252 84.4397C60.332 83.1329 60.9836 81.5363 60.98 79.6499C60.9764 77.7635 60.3248 76.1651 59.0252 74.8547C57.7256 73.5443 56.1272 72.8927 54.23 72.8999C52.3328 72.9071 50.7362 73.5605 49.4402 74.8601C48.1442 76.1597 47.4908 77.7563 47.48 79.6499C47.4692 81.5435 48.1226 83.1419 49.4402 84.4451C50.7578 85.7483 52.3544 86.3999 54.23 86.3999ZM49.37 65.6099H59.36C59.36 62.6399 59.6984 60.3 60.3752 58.59C61.052 56.88 62.9636 54.54 66.11 51.57C68.45 49.23 70.295 47.0016 71.645 44.8848C72.995 42.768 73.67 40.2264 73.67 37.26C73.67 32.22 71.825 28.35 68.135 25.65C64.445 22.95 60.08 21.6 55.04 21.6C49.91 21.6 45.7484 22.95 42.5552 25.65C39.362 28.35 37.1336 31.59 35.87 35.37L44.78 38.88C45.23 37.26 46.2434 35.505 47.8202 33.615C49.397 31.725 51.8036 30.78 55.04 30.78C57.92 30.78 60.08 31.5684 61.52 33.1452C62.96 34.722 63.68 36.4536 63.68 38.34C63.68 40.14 63.14 41.8284 62.06 43.4052C60.98 44.982 59.63 46.4436 58.01 47.79C54.05 51.3 51.62 53.955 50.72 55.755C49.82 57.555 49.37 60.84 49.37 65.6099ZM54.5 108C47.03 108 40.01 106.583 33.44 103.75C26.87 100.917 21.155 97.0685 16.295 92.2049C11.435 87.3413 7.5884 81.6263 4.7552 75.0599C1.92201 68.4935 0.503607 61.4735 0.500007 54C0.496407 46.5264 1.91481 39.5064 4.7552 32.94C7.5956 26.3736 11.4422 20.6586 16.295 15.795C21.1478 10.9314 26.8628 7.08482 33.44 4.25522C40.0172 1.42563 47.0372 0.00722726 54.5 2.72727e-05C61.9628 -0.00717272 68.9828 1.41123 75.56 4.25522C82.1371 7.09922 87.8522 10.9458 92.7049 15.795C97.5577 20.6442 101.406 26.3592 104.25 32.94C107.094 39.5208 108.511 46.5408 108.5 54C108.489 61.4592 107.071 68.4791 104.245 75.0599C101.419 81.6407 97.5722 87.3557 92.7049 92.2049C87.8378 97.0541 82.1227 100.903 75.56 103.75C68.9972 106.598 61.9772 108.014 54.5 108ZM54.5 97.1999C66.56 97.1999 76.7749 93.0149 85.1449 84.6449C93.5149 76.2749 97.6999 66.0599 97.6999 54C97.6999 41.94 93.5149 31.725 85.1449 23.355C76.7749 14.985 66.56 10.8 54.5 10.8C42.44 10.8 32.225 14.985 23.855 23.355C15.485 31.725 11.3 41.94 11.3 54C11.3 66.0599 15.485 76.2749 23.855 84.6449C32.225 93.0149 42.44 97.1999 54.5 97.1999Z" fill="white"/>
</svg>
